<svg xmlns="http://www.w3.org/2000/svg" width="24" height="24" viewBox="0 0 24 24" fill="currentColor"><path d="M12.186 24h-.007c-3.581-.024-6.334-1.205-8.184-3.509C2.35 18.44 1.5 15.586 1.472 12.01v-.017c.03-3.579.879-6.43 2.525-8.482C5.845 1.205 8.6.024 12.18 0h.014c2.746.02 5.043.725 6.826 2.098 1.677 1.29 2.858 3.13 3.509 5.467l-2.04.569c-1.104-3.96-3.898-5.984-8.304-6.015-2.91.022-5.11.936-6.54 2.717C4.307 6.504 3.616 8.914 3.59 12c.025 3.086.718 5.496 2.057 7.164 1.432 1.783 3.631 2.698 6.54 2.717 2.623-.02 4.358-.631 5.8-2.045 1.647-1.613 1.618-3.593 1.09-4.798-.31-.71-.873-1.3-1.634-1.75-.192 1.352-.622 2.446-1.284 3.272-.86 1.074-2.088 1.67-3.556 1.726h-.028c-1.258-.04-2.283-.463-3.048-1.258-.708-.734-1.1-1.723-1.1-2.783 0-2.199 1.673-3.834 3.893-3.834.603 0 1.178.116 1.707.342-.076-.588-.224-1.094-.442-1.507-.384-.725-1.005-1.134-1.846-1.216l.125-2.08c1.384.083 2.502.707 3.228 1.804.547.826.877 1.894.983 3.18 1.013.537 1.826 1.22 2.412 2.038.9 1.257 1.286 2.822.967 4.396-.495 2.442-2.199 4.334-4.69 5.203-1.257.438-2.688.663-4.243.675zM10.39 14.35c-1.16 0-1.878.733-1.878 1.736 0 .482.184.906.518 1.252.42.434 1.056.672 1.79.693.946-.035 1.692-.374 2.218-1.009.39-.472.66-1.098.81-1.874a4.537 4.537 0 0 0-1.66-.592 4.29 4.29 0 0 0-.728-.064l-.07.001z"/></svg>