<svg xmlns="http://www.w3.org/2000/svg" width="24" height="24" viewBox="0 0 24 24" fill="currentColor"><path d="M12 2C6.48 2 2 5.82 2 10.5c0 4.21 3.74 7.74 8.79 8.4.34.07.81.22.92.51.1.26.07.67.03.93l-.15.89c-.04.26-.2 1.01.89.55.1-.05 5.77-3.4 7.88-5.82C22.08 14.08 22 12.36 22 10.5 22 5.82 17.52 2 12 2zm-3.08 11.27H6.58a.54.54 0 0 1-.54-.54V8.54c0-.3.24-.54.54-.54s.54.24.54.54v3.65h1.8c.3 0 .54.24.54.54s-.24.54-.54.54zm1.67-.54a.54.54 0 0 1-1.08 0V8.54a.54.54 0 0 1 1.08 0v4.19zm4.44 0a.54.54 0 0 1-.41.52.53.53 0 0 1-.62-.27l-2.3-3.13v2.88a.54.54 0 0 1-1.08 0V8.54a.54.54 0 0 1 .41-.52.54.54 0 0 1 .62.27l2.3 3.12V8.54a.54.54 0 0 1 1.08 0v4.19zm2.97-2.81a.54.54 0 0 1 0 1.08h-1.8v1.19h1.8a.54.54 0 0 1 0 1.08h-2.34a.54.54 0 0 1-.54-.54V8.54c0-.3.24-.54.54-.54h2.34a.54.54 0 0 1 0 1.08h-1.8v.84h1.8z"/></svg>